<svg width="49" height="49" viewBox="0 0 49 49" fill="none" xmlns="http://www.w3.org/2000/svg">
<g id="Group">
<g id="Group_2">
<g id="Group_3">
<g id="Group_4">
<path id="Vector" d="M47.5696 7.68732C37.4547 6.67583 34.5214 0.809192 34.4203 0.556319C34.2686 0.252872 33.9651 0.0505745 33.5605 0C33.2065 0 32.903 0.202298 32.7007 0.505745C32.5996 0.758617 29.6663 6.62526 19.5514 7.63675C19.0962 7.68732 18.7422 8.09192 18.7422 8.54709V14.4137C18.7422 14.9195 19.1468 15.3241 19.6525 15.3241C20.1583 15.3241 20.5629 14.9195 20.5629 14.4137V9.35628C28.2502 8.34479 31.9927 4.65285 33.5099 2.62987C35.0272 4.65285 38.7697 8.34479 46.457 9.35628V18.5103C46.457 27.1079 36.9996 33.4297 34.1168 35.1493C33.6617 35.4021 33.5605 35.9585 33.8134 36.4136C33.9651 36.7171 34.3191 36.8688 34.6226 36.8688C34.7743 36.8688 34.926 36.8182 35.0777 36.7171C39.0731 34.3401 48.3283 27.816 48.3283 18.4597V8.64824C48.3788 8.14249 48.0248 7.7379 47.5696 7.68732Z" fill="black"/>
</g>
<g id="Group_5">
<path id="Vector_2" d="M41.9567 18.1562C41.9567 13.5539 38.2142 9.76086 33.5614 9.76086C28.9085 9.76086 25.166 13.5034 25.166 18.1562C25.166 22.8091 28.9085 26.5516 33.5614 26.5516C38.2142 26.5516 41.9567 22.8091 41.9567 18.1562ZM33.5614 24.6803C29.9706 24.6803 27.0373 21.747 27.0373 18.1562C27.0373 14.5654 29.9706 11.6321 33.5614 11.6321C37.1522 11.6321 40.0855 14.5654 40.0855 18.1562C40.0855 21.747 37.1522 24.6803 33.5614 24.6803Z" fill="black"/>
</g>
<g id="Group_6">
<path id="Vector_3" d="M35.9393 15.6275L32.4497 19.1171L31.0336 17.701C30.6796 17.347 30.0727 17.347 29.7186 17.701C29.3646 18.055 29.3646 18.6619 29.7186 19.0159L31.7922 21.0895C31.9945 21.2918 32.1968 21.3424 32.4497 21.3424C32.7025 21.3424 32.9048 21.2412 33.1071 21.0895L37.2542 16.9424C37.6083 16.5884 37.6083 15.9815 37.2542 15.6275C36.9002 15.2734 36.2933 15.2734 35.9393 15.6275Z" fill="black"/>
</g>
<g id="Group_7">
<path id="Vector_4" d="M32.3982 31.4067C32.3982 29.6366 30.9821 28.2205 29.212 28.2205H22.0304C22.3339 26.7033 22.8396 23.9217 23.1431 22.3539C23.5982 20.1792 22.5362 18.4091 20.2603 17.5493C19.5523 17.2965 18.7937 17.2965 18.1362 17.6505C17.4787 18.0045 17.0236 18.6114 16.8213 19.37L16.0626 22.455C15.2535 25.6412 11.5615 29.9401 11.5109 29.9906C11.2075 30.3447 10.8029 30.6481 10.3477 30.8504V30.547C10.3477 30.0412 9.94314 29.6366 9.43739 29.6366H1.24433C0.73858 29.6366 0.333984 30.0412 0.333984 30.547V44.8595C0.333984 45.3653 0.73858 45.7699 1.24433 45.7699H9.43739C9.89256 45.7699 10.196 45.4664 10.2972 45.0618C10.7018 45.3147 11.1569 45.5676 11.6121 45.871C13.0282 46.8825 14.6971 48.0457 17.7316 48.0457H27.2396C29.0097 48.0457 30.4258 46.6296 30.4258 44.8595C30.4258 44.1515 30.1729 43.494 29.7683 42.9377C30.5775 42.3814 31.0833 41.4205 31.0833 40.3584C31.0833 39.6504 30.8304 38.9929 30.4258 38.4366C31.235 37.8803 31.7407 36.9194 31.7407 35.8573C31.7407 35.1492 31.4879 34.4918 31.0833 33.9355C31.8925 33.4297 32.3982 32.4688 32.3982 31.4067ZM8.52705 43.9492H2.20524V31.5079H8.52705V43.9492ZM29.2626 32.7722H27.5431C27.0373 32.7722 26.6327 33.1768 26.6327 33.6826C26.6327 34.1883 27.0373 34.5929 27.5431 34.5929H28.5545C29.2626 34.5929 29.8695 35.1998 29.8695 35.9079C29.8695 36.6159 29.2626 37.2228 28.5545 37.2228H26.5821C26.0764 37.2228 25.6718 37.6274 25.6718 38.1331C25.6718 38.6389 26.0764 39.0435 26.5821 39.0435H27.8971C28.6051 39.0435 29.212 39.6504 29.212 40.3584C29.212 41.0665 28.6051 41.6734 27.8971 41.6734H26.0258C25.5201 41.6734 25.1155 42.0779 25.1155 42.5837C25.1155 43.0894 25.5201 43.494 26.0258 43.494H27.189C27.8971 43.494 28.504 44.1009 28.504 44.809C28.504 45.517 27.8971 46.1239 27.189 46.1239H17.7316C15.304 46.1239 14.0397 45.2136 12.6742 44.3032C11.9661 43.7975 11.2581 43.2917 10.3477 42.9377V32.8228C11.3592 32.5699 12.219 32.0136 12.927 31.2044C13.0788 31.0021 16.9224 26.501 17.8833 22.9102L18.6419 19.8252C18.6925 19.5723 18.8442 19.4206 18.996 19.3194C19.1477 19.2689 19.35 19.2183 19.6029 19.2689C21.5247 19.9769 21.5247 21.1401 21.3224 21.9493C20.8672 24.2252 20.0075 28.9792 20.0075 28.9792C19.9569 29.232 20.058 29.5355 20.2098 29.7378C20.4121 29.9401 20.6649 30.0918 20.9178 30.0918H29.2626C29.9706 30.0918 30.5775 30.6987 30.5775 31.4067C30.5269 32.1653 29.9706 32.7722 29.2626 32.7722Z" fill="black"/>
</g>
<g id="Group_8">
<path id="Vector_5" d="M5.34187 42.432C6.12395 42.432 6.75795 41.798 6.75795 41.0159C6.75795 40.2339 6.12395 39.5999 5.34187 39.5999C4.55978 39.5999 3.92578 40.2339 3.92578 41.0159C3.92578 41.798 4.55978 42.432 5.34187 42.432Z" fill="black"/>
</g>
</g>
</g>
</g>
</svg>
