<svg width="49" height="48" viewBox="0 0 49 48" fill="none" xmlns="http://www.w3.org/2000/svg">
<g id="Group 5">
<path id="Vector" fill-rule="evenodd" clip-rule="evenodd" d="M46.6996 1.27733H27.9887C27.7999 1.27733 27.6276 1.3552 27.5028 1.48C27.3775 1.60533 27.3001 1.77707 27.3001 1.96587V15.5429C27.3001 15.7317 27.378 15.904 27.5028 16.0288C27.6282 16.1541 27.7999 16.2315 27.9887 16.2315H31.1375C31.49 16.2315 31.7764 16.5173 31.7764 16.8704V19.5221L34.641 17.8683C34.6516 17.8613 34.6623 17.8544 34.6735 17.848L37.2836 16.3408C37.3855 16.2715 37.5087 16.2315 37.6415 16.2315H46.6996C46.8884 16.2315 47.0607 16.1536 47.1855 16.0288C47.3108 15.9035 47.3881 15.7317 47.3881 15.5429V1.9664C47.3881 1.7776 47.3103 1.60533 47.1855 1.48053C47.0602 1.3552 46.8884 1.27787 46.6996 1.27787V1.27733ZM27.9887 0H46.6996C47.241 0 47.7327 0.2208 48.089 0.577067C48.4452 0.933333 48.666 1.42507 48.666 1.9664V15.5435C48.666 16.0848 48.4452 16.5765 48.089 16.9328C47.7327 17.2891 47.241 17.5099 46.6996 17.5099H37.81L35.3124 18.9515C35.3007 18.9584 35.289 18.9648 35.2772 18.9707L31.4548 21.1776C31.1503 21.3525 30.7615 21.2475 30.5866 20.9429C30.529 20.8427 30.5018 20.7339 30.5018 20.6261H30.4991V17.5099H27.9892C27.4479 17.5099 26.9562 17.2891 26.5999 16.9328C26.2436 16.5765 26.0228 16.0848 26.0228 15.5435V1.9664C26.0228 1.42507 26.2436 0.933333 26.5999 0.577067C26.9562 0.2208 27.4473 0 27.9887 0ZM31.4212 6.12267C31.0687 6.12267 30.7823 5.8368 30.7823 5.48373C30.7823 5.13067 31.0682 4.8448 31.4212 4.8448H37.3439C37.6964 4.8448 37.9828 5.13067 37.9828 5.48373C37.9828 5.8368 37.697 6.12267 37.3439 6.12267H31.4212ZM31.4212 9.60587C31.0687 9.60587 30.7823 9.32 30.7823 8.96693C30.7823 8.61387 31.0682 8.328 31.4212 8.328H43.2671C43.6196 8.328 43.906 8.61387 43.906 8.96693C43.906 9.32 43.6202 9.60587 43.2671 9.60587H31.4212ZM31.4212 12.8555C31.0687 12.8555 30.7823 12.5696 30.7823 12.2165C30.7823 11.8635 31.0682 11.5776 31.4212 11.5776H43.2671C43.6196 11.5776 43.906 11.8635 43.906 12.2165C43.906 12.5696 43.6202 12.8555 43.2671 12.8555H31.4212ZM21.9065 16.4773C22.0111 16.3632 22.0809 16.2539 22.0708 16.1797C22.0649 16.136 22.0639 16.0928 22.0665 16.0507C22.1418 13.4357 21.8585 11.6107 21.2159 10.576C20.6767 9.70773 19.8105 9.4576 18.6185 9.82507C18.521 9.85493 18.4212 9.86027 18.3268 9.8448C15.1881 9.3168 13.0388 9.65173 11.8777 10.8496C10.8527 11.9072 10.5476 13.6971 10.9615 16.2187C11.2282 15.9813 11.4623 15.7397 11.6628 15.4944C12.0249 15.0517 12.2756 14.5989 12.4153 14.1365C12.5161 13.7989 12.8713 13.6069 13.2089 13.7072C13.2239 13.7115 13.2383 13.7163 13.2522 13.7221C14.3898 14.1211 15.5076 14.2315 16.6058 14.0544C17.7162 13.8752 18.8196 13.3989 19.9167 12.6256C20.2047 12.4229 20.6026 12.4923 20.8052 12.7803C20.8367 12.8245 20.8612 12.8715 20.8799 12.92C21.21 13.6491 21.4671 14.3797 21.65 15.112C21.7631 15.5637 21.8484 16.0187 21.9065 16.4773ZM22.0324 17.9984C22.018 18.0064 22.0041 18.0139 21.9897 18.0213V20.1355C22.2009 19.8192 22.3882 19.4368 22.5023 19.0581C22.6074 18.7099 22.6458 18.3909 22.5679 18.1867C22.5247 18.0736 22.3855 17.9995 22.106 18.0021C22.0809 18.0021 22.0564 18.0011 22.0324 17.9984ZM10.5668 18.0011C10.5519 18.0016 10.5369 18.0021 10.522 18.0016C10.2479 18.0005 10.1113 18.0741 10.0681 18.1861C9.99028 18.3899 10.0287 18.7093 10.1337 19.0576C10.2463 19.4293 10.4281 19.8043 10.6345 20.1168V17.9936C10.6217 17.9957 10.6089 17.9973 10.5961 17.9984H10.5945H10.5929H10.5924H10.5913H10.5897H10.5881H10.5849H10.5833H10.5817H10.5801H10.5785H10.5753H10.5737H10.5721H10.5705H10.5689H10.5673L10.5668 18.0011ZM20.7124 17.4032V17.4181V20.5941C20.7124 21.6523 20.2788 22.6149 19.5807 23.3136C18.8825 24.0123 17.9199 24.4453 16.8612 24.4453H15.7636C14.7055 24.4453 13.7428 24.0117 13.0441 23.3136C12.346 22.6155 11.9124 21.6528 11.9124 20.5941V17.0795C12.1887 16.8261 12.4351 16.5675 12.6505 16.3035C12.9663 15.9173 13.2185 15.5189 13.4073 15.1077C14.5497 15.4256 15.6826 15.4939 16.8052 15.3125C17.8863 15.1381 18.9492 14.7339 19.9929 14.0997C20.1609 14.5365 20.3001 14.9776 20.4116 15.4219C20.5764 16.0811 20.6767 16.7413 20.7124 17.4032ZM13.5641 31.0363L15.3737 29.3691L11.9343 26.3147L11.3001 26.9195L13.5641 31.0363ZM16.3231 28.5104L13.4911 25.9952L13.826 25.3408C14.4244 25.5867 15.0788 25.7227 15.7636 25.7227H16.8612C17.546 25.7227 18.2004 25.5867 18.7988 25.3408L19.1402 26.008L16.3231 28.5104ZM18.3834 30.3931C18.4698 30.4421 18.5407 30.5093 18.5935 30.5867L19.0815 31.0363L21.3455 26.9195L20.7113 26.3147L17.2719 29.3691L18.3828 30.3925L18.3834 30.3931ZM16.8159 32.9493H15.8553L14.0431 41.9333L16.3359 44.9979L18.6287 41.9333L16.8159 32.9493ZM15.7145 31.672H16.9567L17.2649 31.0971L16.3225 30.2288L15.3978 31.0811L15.7145 31.672ZM10.1124 27.4085L12.8383 32.3643C13.0079 32.6731 13.3956 32.7856 13.7039 32.6165C13.7561 32.5877 13.8026 32.5531 13.8431 32.5131L14.4308 31.9717L14.666 32.4101L12.7391 41.9627C12.7023 42.1472 12.7492 42.3296 12.8537 42.4693L14.169 44.2272C11.7215 43.9701 9.44415 43.2869 7.46175 42.2747C5.14655 41.0928 3.24042 39.4645 1.94335 37.5472V37.0864C1.94335 34.5856 2.88895 32.2971 4.43935 30.5611C5.89268 28.9339 7.87722 27.7899 10.1124 27.4085ZM39.666 29.0645C38.9402 28.3387 37.938 27.8901 36.8303 27.8901C35.7225 27.8901 34.7204 28.3392 33.9945 29.0645C33.2687 29.7904 32.8202 30.7925 32.8202 31.9003C32.8202 33.008 33.2692 34.0101 33.9945 34.736C34.7204 35.4619 35.7225 35.9104 36.8303 35.9104C37.938 35.9104 38.9402 35.4613 39.666 34.736C40.3919 34.0107 40.8404 33.008 40.8404 31.9003C40.8404 30.7925 40.3913 29.7904 39.666 29.0645ZM36.8303 26.6123C38.2906 26.6123 39.6122 27.2043 40.5695 28.1611C41.5263 29.1179 42.1183 30.44 42.1183 31.9003C42.1183 33.3605 41.5263 34.6821 40.5695 35.6395C39.6127 36.5963 38.2906 37.1883 36.8303 37.1883C35.37 37.1883 34.0484 36.5963 33.0911 35.6395C32.1343 34.6827 31.5423 33.3605 31.5423 31.9003C31.5423 30.44 32.1343 29.1184 33.0911 28.1611C34.0479 27.2043 35.37 26.6123 36.8303 26.6123ZM37.642 23.4261C37.9754 23.6411 38.305 23.8533 38.7049 23.9472C39.1172 24.0437 39.513 23.9947 39.9065 23.9456C40.2356 23.9045 40.5625 23.864 40.7252 23.9435C40.8895 24.024 41.0538 24.3051 41.218 24.5851C41.4175 24.9264 41.617 25.2667 41.9386 25.5248C42.2618 25.7845 42.6404 25.9051 43.0186 26.0261C43.3226 26.1232 43.6271 26.2208 43.7407 26.3621C43.8532 26.5024 43.8831 26.8213 43.9124 27.1413C43.9492 27.536 43.9855 27.9312 44.17 28.3072C44.3535 28.6811 44.6367 28.9493 44.9215 29.2187C45.1631 29.4475 45.4058 29.6773 45.4506 29.8688C45.4959 30.0619 45.3834 30.3813 45.2692 30.704C45.1343 31.0869 44.9978 31.4731 44.9978 31.9008C44.9978 32.3285 45.1343 32.7147 45.2692 33.0976C45.3834 33.4203 45.4959 33.7392 45.4506 33.9328C45.4058 34.1243 45.1625 34.3541 44.9215 34.5829C44.6367 34.8528 44.3535 35.1211 44.17 35.4944C43.9855 35.8704 43.9487 36.2656 43.9124 36.6603C43.8825 36.9797 43.8532 37.2992 43.7407 37.4395C43.6271 37.5808 43.3226 37.6784 43.0186 37.7755C42.8484 37.8299 42.6788 37.8843 42.5135 37.9509L42.5092 37.9525C42.5007 37.9557 42.4927 37.9589 42.4841 37.9627C42.2921 38.0427 42.1076 38.1403 41.938 38.2763C41.6164 38.5344 41.417 38.8747 41.2175 39.216C41.0537 39.496 40.889 39.7771 40.7247 39.8576C40.562 39.9376 40.2351 39.8965 39.906 39.8555C39.5124 39.8064 39.1167 39.7573 38.7044 39.8539C38.3044 39.9477 37.9743 40.1605 37.6415 40.3749C37.3487 40.5637 37.0516 40.7552 36.8298 40.7552C36.6079 40.7552 36.3108 40.5637 36.018 40.3749C35.6852 40.16 35.3551 39.9477 34.9551 39.8539C34.5428 39.7573 34.1471 39.8064 33.7535 39.8555C33.4244 39.8965 33.097 39.9371 32.9348 39.8576C32.7705 39.7771 32.6063 39.496 32.442 39.216C32.2426 38.8747 32.0431 38.5344 31.7215 38.2763C31.5519 38.1397 31.3668 38.0421 31.1748 37.9621C31.1668 37.9584 31.1583 37.9552 31.1498 37.952H31.1481L31.1466 37.9509L31.1156 37.9387C31.0943 37.9291 31.073 37.9211 31.0511 37.9141C30.9162 37.8635 30.7785 37.8197 30.6409 37.7755C30.337 37.6784 30.0324 37.5808 29.9188 37.4395C29.8063 37.2992 29.7764 36.9803 29.7471 36.6603C29.7103 36.2656 29.674 35.8709 29.4895 35.4944C29.306 35.1205 29.0228 34.8523 28.738 34.5829C28.4964 34.3541 28.2537 34.1243 28.2084 33.9328C28.1631 33.7397 28.2756 33.4203 28.3897 33.0976C28.5247 32.7147 28.6612 32.3285 28.6612 31.9008C28.6612 31.4731 28.5247 31.0869 28.3897 30.704C28.2756 30.3813 28.1631 30.0624 28.2084 29.8688C28.2532 29.6773 28.4964 29.4475 28.7375 29.2187C29.0223 28.9488 29.3055 28.6811 29.489 28.3072C29.6735 27.9307 29.7103 27.536 29.7466 27.1413C29.7764 26.8219 29.8057 26.5024 29.9183 26.3621C30.0319 26.2208 30.3364 26.1232 30.6404 26.0261C31.0186 25.9051 31.3972 25.7845 31.7204 25.5248C32.042 25.2667 32.2415 24.9264 32.441 24.5851C32.6047 24.3051 32.7695 24.024 32.9338 23.9435C33.0964 23.864 33.4234 23.9045 33.7524 23.9456C34.146 23.9947 34.5418 24.0437 34.954 23.9472C35.354 23.8533 35.6842 23.6405 36.0169 23.4261C36.3097 23.2373 36.6068 23.0459 36.8287 23.0459C37.0506 23.0459 37.3476 23.2373 37.6404 23.4261H37.642ZM29.7807 38.8235C29.4612 38.6981 29.1625 38.5307 28.9268 38.2368C28.5753 37.7989 28.5279 37.2869 28.4804 36.7739C28.4548 36.4965 28.4287 36.2181 28.3476 36.0523C28.2687 35.8912 28.0655 35.6987 27.8607 35.5051C27.481 35.1456 27.0991 34.7835 26.9668 34.2213C26.8367 33.6672 27.0116 33.1728 27.1882 32.6725C27.2863 32.3952 27.385 32.1152 27.385 31.9003C27.385 31.6853 27.2863 31.4053 27.1882 31.128C27.0298 30.68 26.8735 30.2363 26.9359 29.7499C26.282 29.1691 25.5508 28.6736 24.7599 28.2816C24.0457 27.9275 23.2841 27.6581 22.4889 27.4864L19.8063 32.3637C19.6367 32.6725 19.2489 32.7851 18.9401 32.616C18.8879 32.5872 18.8415 32.5525 18.8009 32.5125L18.2308 31.9872L18.0041 32.4096L19.9316 41.9621C19.9684 42.1467 19.9215 42.3291 19.8169 42.4688L18.498 44.2315C20.7828 43.9968 22.9188 43.3915 24.8063 42.4949C26.778 41.5579 28.4746 40.304 29.7807 38.8235ZM34.1161 41.0976C34.0479 41.1051 33.9785 41.1136 33.9087 41.1227C33.3962 41.1867 32.8863 41.2501 32.3764 41C31.866 40.7499 31.6047 40.304 31.3449 39.8597C31.2687 39.7296 31.1924 39.5995 31.1162 39.4896L29.0138 43.1765L30.6868 42.8224V42.8235C30.9994 42.7568 31.3193 42.9339 31.4228 43.2443L31.97 44.8635L34.1167 41.0981L34.1161 41.0976ZM42.546 39.4891C42.4692 39.5989 42.393 39.7291 42.3172 39.8592C42.0569 40.3035 41.7962 40.7493 41.2858 40.9995C40.7759 41.2496 40.266 41.1861 39.7535 41.1221C39.6842 41.1136 39.6143 41.1051 39.546 41.0971L41.6927 44.8624L42.2399 43.2432C42.3439 42.9328 42.6634 42.7557 42.9759 42.8224V42.8213L44.649 43.1755L42.5466 39.4885L42.546 39.4891ZM36.8308 21.7685C37.4244 21.7685 37.8804 22.0629 38.3311 22.3531C38.5711 22.5077 38.8089 22.6608 38.9951 22.7045C39.1839 22.7488 39.4687 22.7131 39.7524 22.6779C40.265 22.6139 40.7748 22.5504 41.2847 22.8005C41.7951 23.0507 42.0564 23.4965 42.3162 23.9408C42.4554 24.1787 42.5946 24.4165 42.7375 24.5312C42.8804 24.6459 43.1418 24.7296 43.4031 24.8128C43.8932 24.9696 44.3834 25.1259 44.7337 25.5632C45.0852 26.0011 45.1327 26.5131 45.1801 27.0261C45.2057 27.304 45.2319 27.5819 45.313 27.7477C45.3919 27.9088 45.5951 28.1013 45.7999 28.2949C46.1796 28.6544 46.5615 29.0165 46.6938 29.5787C46.8239 30.1328 46.649 30.6272 46.4724 31.1275C46.3743 31.4048 46.2756 31.6848 46.2756 31.8997C46.2756 32.1147 46.3743 32.3947 46.4724 32.672C46.649 33.1717 46.8239 33.6667 46.6938 34.2208C46.562 34.7835 46.1796 35.1451 45.7999 35.5045C45.5956 35.6981 45.3924 35.8907 45.313 36.0517C45.2313 36.2176 45.2057 36.496 45.1801 36.7733C45.1327 37.2864 45.0852 37.7984 44.7337 38.2363C44.4479 38.592 44.0698 38.7621 43.6745 38.8976L46.4426 43.752C46.5284 43.8875 46.5636 44.056 46.5274 44.2251C46.4543 44.5696 46.1156 44.7899 45.7711 44.7168L43.2634 44.1861L42.4473 46.6016C42.4004 46.7499 42.3002 46.8811 42.1546 46.9637C41.8484 47.1376 41.4596 47.0299 41.2863 46.7243L38.2916 41.4715C37.8532 41.7536 37.4063 42.0315 36.8298 42.0315C36.2532 42.0315 35.8063 41.7541 35.3679 41.4715L32.3732 46.7243C32.1993 47.0304 31.8106 47.1376 31.505 46.9637C31.3594 46.8811 31.2585 46.7493 31.2122 46.6016L30.3962 44.1861L27.8884 44.7168C27.5439 44.7899 27.2052 44.5696 27.1322 44.2251C27.0964 44.0555 27.1311 43.8875 27.217 43.752L28.2666 41.9115C27.3748 42.5669 26.3972 43.1493 25.3492 43.6469C23.0244 44.7515 20.3476 45.4411 17.4836 45.5851L16.8516 46.4299C16.8314 46.4576 16.809 46.4843 16.7844 46.5093C16.7359 46.5579 16.681 46.5973 16.6223 46.6272L16.618 46.6293L16.6111 46.6325L16.6015 46.6368L16.5983 46.6384C16.5188 46.6747 16.434 46.6933 16.3492 46.6955H16.3444H16.3348H16.3252H16.3204C16.2356 46.6939 16.1508 46.6747 16.0713 46.6384L16.0682 46.6368L16.0585 46.6325L16.0516 46.6293L16.0473 46.6272C15.9881 46.5973 15.9332 46.5579 15.8852 46.5093C15.8601 46.4843 15.8377 46.4581 15.818 46.4299L15.1839 45.5824C12.1364 45.4224 9.30282 44.6464 6.88255 43.4112C4.30655 42.096 2.19028 40.2592 0.770549 38.0869C0.700149 37.9792 0.666549 37.8576 0.666549 37.7376L0.666016 37.0848C0.666016 34.2629 1.73642 31.6763 3.49108 29.7115C5.22442 27.7707 7.62708 26.4384 10.3268 26.0859L11.4783 24.9877C11.7151 24.7627 12.0895 24.752 12.3391 24.9728L12.5076 25.1221L12.7167 24.7136C12.5124 24.5621 12.3199 24.3957 12.1401 24.216C11.5193 23.5952 11.0559 22.8165 10.8164 21.9472C10.4116 21.7963 10.0057 21.4325 9.66548 20.952C9.35082 20.5077 9.07188 19.9595 8.91082 19.4267C8.73055 18.8293 8.68682 18.2235 8.87508 17.7317C9.03402 17.3168 9.32255 16.9989 9.77802 16.8405C9.18762 13.6789 9.58282 11.3861 10.9631 9.96107C12.4143 8.46346 14.8906 7.99733 18.3908 8.56373C20.1348 8.0704 21.4372 8.5168 22.2975 9.90187C23.0724 11.1499 23.4191 13.2059 23.338 16.0693C23.3599 16.3584 23.258 16.6629 23.0927 16.9451C23.4143 17.1205 23.6297 17.3941 23.7593 17.7317C23.9476 18.2229 23.9044 18.8293 23.7236 19.4267C23.5626 19.9595 23.2836 20.5077 22.969 20.952C22.6244 21.4379 22.2137 21.8048 21.8047 21.9525C21.5652 22.8197 21.1023 23.5968 20.4825 24.2165C20.3028 24.3963 20.1103 24.5621 19.906 24.7141L20.1215 25.1355L20.3039 24.9733C20.5535 24.7525 20.9273 24.7632 21.1641 24.9888H21.1647L22.4068 26.1728C23.4356 26.36 24.4148 26.6891 25.3225 27.1387C26.1236 27.5355 26.8708 28.0267 27.5492 28.5973C27.6489 28.4933 27.754 28.3941 27.8586 28.2949C28.0628 28.1013 28.266 27.9088 28.3455 27.7477C28.4271 27.5819 28.4527 27.3035 28.4783 27.0261C28.5257 26.5131 28.5732 26.0011 28.9247 25.5632C29.2751 25.1264 29.7658 24.9696 30.2554 24.8128C30.5167 24.7291 30.7786 24.6459 30.9209 24.5312C31.0634 24.4165 31.2026 24.1792 31.3423 23.9408C31.6026 23.4965 31.8634 23.0507 32.3738 22.8005C32.8836 22.5504 33.3935 22.6139 33.906 22.6779C34.1898 22.7131 34.4751 22.7488 34.6639 22.7045C34.85 22.6608 35.0879 22.5077 35.3279 22.3531C35.7785 22.0624 36.2351 21.7685 36.8287 21.7685H36.8308Z" fill="black"/>
</g>
</svg>
