<svg width="50" height="46" viewBox="0 0 50 46" fill="none" xmlns="http://www.w3.org/2000/svg">
<g id="Group 6">
<g id="Vector">
<mask id="path-1-outside-1_296_360" maskUnits="userSpaceOnUse" x="0" y="0" width="50" height="46" fill="black">
<rect fill="white" width="50" height="46"/>
<path d="M24.9991 18.45C22.5371 18.4462 20.1216 19.1205 18.0176 20.3989C15.9135 21.6772 14.2021 23.5103 13.0711 25.6971C11.9401 27.8839 11.4331 30.3399 11.6057 32.7959C11.7784 35.2518 12.624 37.6127 14.0498 39.6197L14.0325 39.6419L14.3644 40.0718C14.4197 40.1438 14.4846 40.2054 14.5415 40.2766C14.6814 40.4504 14.8315 40.6164 14.9801 40.7832C15.154 40.9792 15.324 41.1784 15.5073 41.3633C15.5215 41.3768 15.5366 41.3886 15.5508 41.4029C16.1138 41.9606 16.7254 42.4671 17.3782 42.9165C17.4256 42.9497 17.4706 42.9868 17.5189 43.0192C17.8018 43.2097 18.0951 43.382 18.3883 43.5496C18.4966 43.6112 18.6025 43.6744 18.7131 43.7329C18.989 43.8799 19.2711 44.0135 19.5573 44.14C19.7059 44.2064 19.856 44.2696 20.0086 44.3312C20.2734 44.4372 20.5397 44.5367 20.8116 44.6253C21.0092 44.6909 21.2068 44.7454 21.4123 44.8015C21.6542 44.8679 21.8944 44.9367 22.1403 44.9896C22.4098 45.0481 22.6848 45.0884 22.9599 45.1311C23.1527 45.1604 23.3432 45.1983 23.5377 45.2196C24.5065 45.3292 25.4846 45.3292 26.4534 45.2196C26.6494 45.1983 26.8399 45.1596 27.0335 45.1303C27.3078 45.0884 27.5821 45.0513 27.8508 44.9896C28.0974 44.9367 28.3385 44.8679 28.5811 44.8015C28.7819 44.7454 28.9818 44.6909 29.1787 44.6261C29.4513 44.5367 29.7185 44.4364 29.9848 44.3305C30.1358 44.2696 30.2844 44.2072 30.433 44.1408C30.7199 44.0143 31.0021 43.8799 31.2795 43.7321C31.3886 43.6744 31.4937 43.612 31.6012 43.5503C31.8984 43.382 32.1924 43.2097 32.4762 43.0184C32.5228 42.9868 32.567 42.9504 32.6137 42.918C33.2628 42.4722 33.8712 41.9696 34.4316 41.4163C34.4505 41.3981 34.4719 41.3815 34.4901 41.3626C34.6718 41.1808 34.8402 40.9832 35.0117 40.7895C35.1627 40.6196 35.3152 40.452 35.4575 40.275C35.5136 40.2046 35.5776 40.1438 35.6322 40.0726L35.9641 39.6427L35.9467 39.6205C37.3727 37.6136 38.2185 35.2527 38.3914 32.7968C38.5642 30.3409 38.0574 27.8849 36.9265 25.698C35.7956 23.5111 34.0844 21.6779 31.9804 20.3994C29.8765 19.1209 27.4611 18.4464 24.9991 18.45ZM24.9991 19.8585C27.1704 19.8569 29.3014 20.4441 31.1654 21.5576C33.0294 22.6712 34.5566 24.2693 35.5844 26.1819C36.6121 28.0945 37.102 30.2501 37.0019 32.419C36.9017 34.588 36.2153 36.6892 35.0157 38.499C33.7616 37.0789 32.22 35.9418 30.493 35.1629C28.766 34.384 26.8932 33.9812 24.9987 33.9812C23.1042 33.9812 21.2313 34.384 19.5044 35.1629C17.7774 35.9418 16.2358 37.0789 14.9817 38.499C13.7818 36.6892 13.0951 34.5879 12.9949 32.4187C12.8946 30.2496 13.3845 28.0939 14.4124 26.1811C15.4403 24.2684 16.9678 22.6702 18.832 21.5568C20.6963 20.4434 22.8276 19.8565 24.9991 19.8585ZM33.7289 40.1082C33.6293 40.2141 33.5329 40.3232 33.4309 40.4244C33.2302 40.622 33.0199 40.8085 32.8065 40.9919C32.7212 41.0654 32.6366 41.1405 32.5489 41.2116C32.3191 41.3971 32.082 41.5741 31.8375 41.7427C31.7585 41.7988 31.6794 41.8542 31.5941 41.9087C31.3438 42.0736 31.0869 42.2299 30.8235 42.3774C30.7373 42.4256 30.6496 42.4707 30.5626 42.5165C30.301 42.654 30.0346 42.7845 29.762 42.9022C29.6553 42.9489 29.547 42.9892 29.4387 43.0318C29.1794 43.1354 28.9178 43.2358 28.6483 43.3211C28.5037 43.367 28.3543 43.4002 28.2073 43.4436C27.9702 43.5108 27.7283 43.5788 27.4833 43.6302C27.2683 43.6752 27.0486 43.7045 26.8296 43.7377C26.6415 43.7669 26.4558 43.8041 26.2653 43.8238C25.4221 43.9155 24.5714 43.9155 23.7281 43.8238C23.5377 43.8041 23.3535 43.7669 23.1654 43.7385C22.9464 43.7045 22.7251 43.676 22.5094 43.6302C22.2651 43.5788 22.0272 43.5108 21.7885 43.4444C21.6399 43.4041 21.4906 43.3654 21.3435 43.3211C21.0764 43.2358 20.8156 43.1354 20.5532 43.0318C20.4449 42.9892 20.335 42.9528 20.2283 42.9022C19.9556 42.7845 19.6901 42.654 19.4292 42.5165C19.3415 42.4707 19.253 42.4256 19.1668 42.3774C18.9034 42.2304 18.6465 42.0742 18.3962 41.9087C18.3172 41.855 18.2334 41.7988 18.1535 41.7435C17.9101 41.5736 17.6722 41.3973 17.4422 41.2108C17.3552 41.1405 17.2723 41.0669 17.1877 40.9942C16.9727 40.8093 16.7609 40.6212 16.5554 40.4228C16.4566 40.3248 16.3633 40.2189 16.2669 40.1169C16.1175 39.9588 15.9681 39.8007 15.8266 39.6324C16.9544 38.3027 18.3582 37.2344 19.9404 36.5017C21.5225 35.769 23.2452 35.3895 24.9888 35.3895C26.7324 35.3895 28.4551 35.769 30.0373 36.5017C31.6194 37.2344 33.0232 38.3027 34.151 39.6324C34.0221 39.7968 33.8759 39.9525 33.7289 40.1082ZM24.9991 31.6439C25.9917 31.6438 26.962 31.3493 27.7873 30.7977C28.6125 30.2461 29.2557 29.4622 29.6354 28.5451C30.0152 27.628 30.1145 26.6189 29.9207 25.6454C29.727 24.6718 29.2489 23.7776 28.547 23.0758C27.845 22.3739 26.9507 21.896 25.9772 21.7024C25.0036 21.5088 23.9945 21.6082 23.0774 21.9881C22.1604 22.368 21.3766 23.0113 20.8251 23.8367C20.2737 24.662 19.9793 25.6324 19.9793 26.625C19.981 27.9557 20.5104 29.2315 21.4515 30.1724C22.3925 31.1133 23.6684 31.6425 24.9991 31.6439ZM24.9991 23.0145C25.713 23.0143 26.411 23.2259 27.0048 23.6223C27.5985 24.0188 28.0614 24.5824 28.3349 25.2419C28.6084 25.9013 28.6803 26.6271 28.5414 27.3274C28.4025 28.0277 28.0591 28.6711 27.5546 29.1763C27.05 29.6815 26.4071 30.0257 25.707 30.1656C25.0068 30.3054 24.281 30.2345 23.6211 29.9619C22.9613 29.6892 22.3971 29.2271 21.9998 28.6338C21.6026 28.0406 21.3902 27.3429 21.3894 26.6289C21.3892 25.6711 21.7693 24.7523 22.4461 24.0746C23.123 23.3968 24.0412 23.0155 24.9991 23.0145ZM20.1074 10.9382L19.7754 15.5659C19.7667 15.6857 19.7888 15.8057 19.8395 15.9145C19.8903 16.0233 19.968 16.1174 20.0654 16.1877C20.1627 16.2581 20.2764 16.3023 20.3957 16.3163C20.5149 16.3303 20.6358 16.3136 20.7468 16.2677L24.9548 14.5242L29.2553 16.2693C29.3393 16.3038 29.4293 16.3215 29.5201 16.3215C29.6695 16.321 29.815 16.2734 29.9358 16.1855C30.0329 16.1146 30.1102 16.0199 30.1603 15.9106C30.2104 15.8013 30.2316 15.681 30.222 15.5611L29.8631 11.0212L32.8532 7.47231C32.9306 7.38044 32.9833 7.27027 33.0062 7.15228C33.029 7.0343 33.0213 6.91242 32.9838 6.79826C32.9462 6.68409 32.8801 6.58144 32.7916 6.50006C32.7032 6.41869 32.5954 6.3613 32.4785 6.33336L28.0524 5.27029L25.6022 1.33258C25.5422 1.22736 25.4545 1.14071 25.3485 1.08214C25.2425 1.02357 25.1224 0.995366 25.0015 1.00062C24.8814 1.00095 24.7633 1.03198 24.6586 1.09078C24.5539 1.14957 24.4659 1.23417 24.4031 1.33653L22.0241 5.21971L17.5189 6.33416C17.4022 6.36292 17.2948 6.42105 17.207 6.50302C17.1192 6.585 17.0537 6.68808 17.017 6.80247C16.9802 6.91686 16.9733 7.03875 16.997 7.15655C17.0207 7.27435 17.0741 7.38414 17.1521 7.47548L20.1074 10.9382ZM22.6366 6.51832C22.8163 6.47356 22.9713 6.36003 23.0682 6.20216L25.0015 3.04535L27.0035 6.26065C27.1009 6.41908 27.2568 6.53269 27.4374 6.57681L31.0384 7.4407L28.5977 10.3383C28.5383 10.4082 28.4933 10.4891 28.4652 10.5765C28.4372 10.6638 28.4266 10.7558 28.4341 10.8473L28.7258 14.5384L25.2141 13.1157C25.0432 13.0451 24.8514 13.0451 24.6806 13.1157L21.259 14.5328L21.5301 10.7556C21.5441 10.5705 21.4841 10.3874 21.3633 10.2466L18.9589 7.432L22.6366 6.51832ZM48.9621 12.8865C48.9248 12.7723 48.8588 12.6695 48.7705 12.588C48.6823 12.5065 48.5746 12.449 48.4578 12.4209L45.0591 11.606L43.178 8.57965C43.1146 8.47812 43.0264 8.39438 42.9218 8.33631C42.8171 8.27824 42.6994 8.24774 42.5797 8.24768C42.4596 8.24816 42.3416 8.27926 42.2369 8.33804C42.1323 8.39682 42.0443 8.48134 41.9814 8.5836L40.1548 11.5657L36.696 12.4225C36.5794 12.4513 36.472 12.5094 36.3842 12.5914C36.2963 12.6734 36.2309 12.7764 36.1942 12.8908C36.1574 13.0052 36.1505 13.1271 36.1742 13.2449C36.1978 13.3627 36.2512 13.4725 36.3293 13.5638L38.5938 16.2219L38.3385 19.7786C38.3295 19.8985 38.3515 20.0186 38.4021 20.1276C38.4528 20.2365 38.5306 20.3307 38.628 20.4011C38.7254 20.4715 38.8392 20.5157 38.9586 20.5296C39.0779 20.5435 39.1989 20.5266 39.3098 20.4805L42.5457 19.1392L45.8479 20.4829C45.932 20.5173 46.0219 20.535 46.1127 20.535C46.2099 20.535 46.306 20.5149 46.395 20.476C46.484 20.437 46.564 20.3801 46.63 20.3088C46.696 20.2375 46.7465 20.1533 46.7784 20.0615C46.8103 19.9697 46.8229 19.8724 46.8154 19.7755L46.5403 16.2899L48.8324 13.563C48.9106 13.4711 48.9639 13.3605 48.987 13.242C49.0101 13.1235 49.0023 13.0011 48.9644 12.8865H48.9621ZM45.2725 15.5999C45.1534 15.7415 45.0946 15.9243 45.1089 16.1089L45.3168 18.7456L42.8034 17.7252C42.6325 17.6547 42.4407 17.6547 42.2698 17.7252L39.8252 18.7377L40.0196 16.033C40.033 15.8483 39.9731 15.6657 39.8528 15.5248L38.1345 13.514L40.7665 12.862C40.9465 12.8178 41.1017 12.7042 41.1981 12.5458L42.5797 10.29L44.0134 12.5932C44.1107 12.7514 44.2663 12.865 44.4466 12.9094L47.0193 13.5259L45.2725 15.5999ZM11.3775 16.2867L13.6736 13.5599C13.7509 13.4679 13.8034 13.3578 13.8261 13.2398C13.8489 13.1219 13.8411 13.0001 13.8036 12.886C13.766 12.772 13.7 12.6694 13.6117 12.588C13.5234 12.5066 13.4157 12.4491 13.299 12.4209L9.90031 11.606L8.01761 8.57965C7.95415 8.47817 7.86596 8.39448 7.76131 8.33641C7.65666 8.27835 7.53897 8.24782 7.41928 8.24768C7.29917 8.24794 7.18112 8.27894 7.07639 8.33774C6.97165 8.39654 6.88372 8.48118 6.82096 8.5836L4.99438 11.5657L1.53564 12.4225C1.41898 12.4513 1.31163 12.5094 1.22378 12.5914C1.13593 12.6734 1.07052 12.7764 1.03376 12.8908C0.997007 13.0052 0.990128 13.1271 1.01378 13.2449C1.03744 13.3627 1.09083 13.4725 1.1689 13.5638L3.44047 16.2219L3.18597 19.7786C3.17728 19.8986 3.19944 20.0187 3.25032 20.1276C3.30121 20.2365 3.37913 20.3306 3.47667 20.4009C3.57421 20.4712 3.68811 20.5153 3.80754 20.5291C3.92697 20.5429 4.04794 20.5259 4.15894 20.4797L7.38846 19.1408L10.6907 20.4845C10.7745 20.5189 10.8641 20.5366 10.9547 20.5366C11.052 20.5367 11.1482 20.5167 11.2373 20.4777C11.3264 20.4388 11.4065 20.3818 11.4726 20.3104C11.5386 20.2389 11.5891 20.1546 11.6209 20.0627C11.6527 19.9707 11.6651 19.8732 11.6573 19.7763L11.3775 16.2867ZM10.1129 15.5999C9.99332 15.7416 9.93452 15.9248 9.94932 16.1097L10.158 18.7448L7.64534 17.7252C7.5613 17.6908 7.47137 17.6731 7.38056 17.6731C7.28781 17.6732 7.19598 17.6914 7.11024 17.7268L4.66795 18.7393L4.8608 16.0346C4.86783 15.9431 4.85671 15.8511 4.8281 15.7638C4.79948 15.6766 4.75392 15.5959 4.69403 15.5264L2.97652 13.5156L5.60851 12.8635C5.78842 12.8192 5.94352 12.7056 6.04006 12.5474L7.42166 10.2916L8.85463 12.5948C8.95198 12.7532 9.10791 12.8669 9.28855 12.911L11.8605 13.5275L10.1129 15.5999Z"/>
</mask>
<path d="M24.9991 18.45C22.5371 18.4462 20.1216 19.1205 18.0176 20.3989C15.9135 21.6772 14.2021 23.5103 13.0711 25.6971C11.9401 27.8839 11.4331 30.3399 11.6057 32.7959C11.7784 35.2518 12.624 37.6127 14.0498 39.6197L14.0325 39.6419L14.3644 40.0718C14.4197 40.1438 14.4846 40.2054 14.5415 40.2766C14.6814 40.4504 14.8315 40.6164 14.9801 40.7832C15.154 40.9792 15.324 41.1784 15.5073 41.3633C15.5215 41.3768 15.5366 41.3886 15.5508 41.4029C16.1138 41.9606 16.7254 42.4671 17.3782 42.9165C17.4256 42.9497 17.4706 42.9868 17.5189 43.0192C17.8018 43.2097 18.0951 43.382 18.3883 43.5496C18.4966 43.6112 18.6025 43.6744 18.7131 43.7329C18.989 43.8799 19.2711 44.0135 19.5573 44.14C19.7059 44.2064 19.856 44.2696 20.0086 44.3312C20.2734 44.4372 20.5397 44.5367 20.8116 44.6253C21.0092 44.6909 21.2068 44.7454 21.4123 44.8015C21.6542 44.8679 21.8944 44.9367 22.1403 44.9896C22.4098 45.0481 22.6848 45.0884 22.9599 45.1311C23.1527 45.1604 23.3432 45.1983 23.5377 45.2196C24.5065 45.3292 25.4846 45.3292 26.4534 45.2196C26.6494 45.1983 26.8399 45.1596 27.0335 45.1303C27.3078 45.0884 27.5821 45.0513 27.8508 44.9896C28.0974 44.9367 28.3385 44.8679 28.5811 44.8015C28.7819 44.7454 28.9818 44.6909 29.1787 44.6261C29.4513 44.5367 29.7185 44.4364 29.9848 44.3305C30.1358 44.2696 30.2844 44.2072 30.433 44.1408C30.7199 44.0143 31.0021 43.8799 31.2795 43.7321C31.3886 43.6744 31.4937 43.612 31.6012 43.5503C31.8984 43.382 32.1924 43.2097 32.4762 43.0184C32.5228 42.9868 32.567 42.9504 32.6137 42.918C33.2628 42.4722 33.8712 41.9696 34.4316 41.4163C34.4505 41.3981 34.4719 41.3815 34.4901 41.3626C34.6718 41.1808 34.8402 40.9832 35.0117 40.7895C35.1627 40.6196 35.3152 40.452 35.4575 40.275C35.5136 40.2046 35.5776 40.1438 35.6322 40.0726L35.9641 39.6427L35.9467 39.6205C37.3727 37.6136 38.2185 35.2527 38.3914 32.7968C38.5642 30.3409 38.0574 27.8849 36.9265 25.698C35.7956 23.5111 34.0844 21.6779 31.9804 20.3994C29.8765 19.1209 27.4611 18.4464 24.9991 18.45ZM24.9991 19.8585C27.1704 19.8569 29.3014 20.4441 31.1654 21.5576C33.0294 22.6712 34.5566 24.2693 35.5844 26.1819C36.6121 28.0945 37.102 30.2501 37.0019 32.419C36.9017 34.588 36.2153 36.6892 35.0157 38.499C33.7616 37.0789 32.22 35.9418 30.493 35.1629C28.766 34.384 26.8932 33.9812 24.9987 33.9812C23.1042 33.9812 21.2313 34.384 19.5044 35.1629C17.7774 35.9418 16.2358 37.0789 14.9817 38.499C13.7818 36.6892 13.0951 34.5879 12.9949 32.4187C12.8946 30.2496 13.3845 28.0939 14.4124 26.1811C15.4403 24.2684 16.9678 22.6702 18.832 21.5568C20.6963 20.4434 22.8276 19.8565 24.9991 19.8585ZM33.7289 40.1082C33.6293 40.2141 33.5329 40.3232 33.4309 40.4244C33.2302 40.622 33.0199 40.8085 32.8065 40.9919C32.7212 41.0654 32.6366 41.1405 32.5489 41.2116C32.3191 41.3971 32.082 41.5741 31.8375 41.7427C31.7585 41.7988 31.6794 41.8542 31.5941 41.9087C31.3438 42.0736 31.0869 42.2299 30.8235 42.3774C30.7373 42.4256 30.6496 42.4707 30.5626 42.5165C30.301 42.654 30.0346 42.7845 29.762 42.9022C29.6553 42.9489 29.547 42.9892 29.4387 43.0318C29.1794 43.1354 28.9178 43.2358 28.6483 43.3211C28.5037 43.367 28.3543 43.4002 28.2073 43.4436C27.9702 43.5108 27.7283 43.5788 27.4833 43.6302C27.2683 43.6752 27.0486 43.7045 26.8296 43.7377C26.6415 43.7669 26.4558 43.8041 26.2653 43.8238C25.4221 43.9155 24.5714 43.9155 23.7281 43.8238C23.5377 43.8041 23.3535 43.7669 23.1654 43.7385C22.9464 43.7045 22.7251 43.676 22.5094 43.6302C22.2651 43.5788 22.0272 43.5108 21.7885 43.4444C21.6399 43.4041 21.4906 43.3654 21.3435 43.3211C21.0764 43.2358 20.8156 43.1354 20.5532 43.0318C20.4449 42.9892 20.335 42.9528 20.2283 42.9022C19.9556 42.7845 19.6901 42.654 19.4292 42.5165C19.3415 42.4707 19.253 42.4256 19.1668 42.3774C18.9034 42.2304 18.6465 42.0742 18.3962 41.9087C18.3172 41.855 18.2334 41.7988 18.1535 41.7435C17.9101 41.5736 17.6722 41.3973 17.4422 41.2108C17.3552 41.1405 17.2723 41.0669 17.1877 40.9942C16.9727 40.8093 16.7609 40.6212 16.5554 40.4228C16.4566 40.3248 16.3633 40.2189 16.2669 40.1169C16.1175 39.9588 15.9681 39.8007 15.8266 39.6324C16.9544 38.3027 18.3582 37.2344 19.9404 36.5017C21.5225 35.769 23.2452 35.3895 24.9888 35.3895C26.7324 35.3895 28.4551 35.769 30.0373 36.5017C31.6194 37.2344 33.0232 38.3027 34.151 39.6324C34.0221 39.7968 33.8759 39.9525 33.7289 40.1082ZM24.9991 31.6439C25.9917 31.6438 26.962 31.3493 27.7873 30.7977C28.6125 30.2461 29.2557 29.4622 29.6354 28.5451C30.0152 27.628 30.1145 26.6189 29.9207 25.6454C29.727 24.6718 29.2489 23.7776 28.547 23.0758C27.845 22.3739 26.9507 21.896 25.9772 21.7024C25.0036 21.5088 23.9945 21.6082 23.0774 21.9881C22.1604 22.368 21.3766 23.0113 20.8251 23.8367C20.2737 24.662 19.9793 25.6324 19.9793 26.625C19.981 27.9557 20.5104 29.2315 21.4515 30.1724C22.3925 31.1133 23.6684 31.6425 24.9991 31.6439ZM24.9991 23.0145C25.713 23.0143 26.411 23.2259 27.0048 23.6223C27.5985 24.0188 28.0614 24.5824 28.3349 25.2419C28.6084 25.9013 28.6803 26.6271 28.5414 27.3274C28.4025 28.0277 28.0591 28.6711 27.5546 29.1763C27.05 29.6815 26.4071 30.0257 25.707 30.1656C25.0068 30.3054 24.281 30.2345 23.6211 29.9619C22.9613 29.6892 22.3971 29.2271 21.9998 28.6338C21.6026 28.0406 21.3902 27.3429 21.3894 26.6289C21.3892 25.6711 21.7693 24.7523 22.4461 24.0746C23.123 23.3968 24.0412 23.0155 24.9991 23.0145ZM20.1074 10.9382L19.7754 15.5659C19.7667 15.6857 19.7888 15.8057 19.8395 15.9145C19.8903 16.0233 19.968 16.1174 20.0654 16.1877C20.1627 16.2581 20.2764 16.3023 20.3957 16.3163C20.5149 16.3303 20.6358 16.3136 20.7468 16.2677L24.9548 14.5242L29.2553 16.2693C29.3393 16.3038 29.4293 16.3215 29.5201 16.3215C29.6695 16.321 29.815 16.2734 29.9358 16.1855C30.0329 16.1146 30.1102 16.0199 30.1603 15.9106C30.2104 15.8013 30.2316 15.681 30.222 15.5611L29.8631 11.0212L32.8532 7.47231C32.9306 7.38044 32.9833 7.27027 33.0062 7.15228C33.029 7.0343 33.0213 6.91242 32.9838 6.79826C32.9462 6.68409 32.8801 6.58144 32.7916 6.50006C32.7032 6.41869 32.5954 6.3613 32.4785 6.33336L28.0524 5.27029L25.6022 1.33258C25.5422 1.22736 25.4545 1.14071 25.3485 1.08214C25.2425 1.02357 25.1224 0.995366 25.0015 1.00062C24.8814 1.00095 24.7633 1.03198 24.6586 1.09078C24.5539 1.14957 24.4659 1.23417 24.4031 1.33653L22.0241 5.21971L17.5189 6.33416C17.4022 6.36292 17.2948 6.42105 17.207 6.50302C17.1192 6.585 17.0537 6.68808 17.017 6.80247C16.9802 6.91686 16.9733 7.03875 16.997 7.15655C17.0207 7.27435 17.0741 7.38414 17.1521 7.47548L20.1074 10.9382ZM22.6366 6.51832C22.8163 6.47356 22.9713 6.36003 23.0682 6.20216L25.0015 3.04535L27.0035 6.26065C27.1009 6.41908 27.2568 6.53269 27.4374 6.57681L31.0384 7.4407L28.5977 10.3383C28.5383 10.4082 28.4933 10.4891 28.4652 10.5765C28.4372 10.6638 28.4266 10.7558 28.4341 10.8473L28.7258 14.5384L25.2141 13.1157C25.0432 13.0451 24.8514 13.0451 24.6806 13.1157L21.259 14.5328L21.5301 10.7556C21.5441 10.5705 21.4841 10.3874 21.3633 10.2466L18.9589 7.432L22.6366 6.51832ZM48.9621 12.8865C48.9248 12.7723 48.8588 12.6695 48.7705 12.588C48.6823 12.5065 48.5746 12.449 48.4578 12.4209L45.0591 11.606L43.178 8.57965C43.1146 8.47812 43.0264 8.39438 42.9218 8.33631C42.8171 8.27824 42.6994 8.24774 42.5797 8.24768C42.4596 8.24816 42.3416 8.27926 42.2369 8.33804C42.1323 8.39682 42.0443 8.48134 41.9814 8.5836L40.1548 11.5657L36.696 12.4225C36.5794 12.4513 36.472 12.5094 36.3842 12.5914C36.2963 12.6734 36.2309 12.7764 36.1942 12.8908C36.1574 13.0052 36.1505 13.1271 36.1742 13.2449C36.1978 13.3627 36.2512 13.4725 36.3293 13.5638L38.5938 16.2219L38.3385 19.7786C38.3295 19.8985 38.3515 20.0186 38.4021 20.1276C38.4528 20.2365 38.5306 20.3307 38.628 20.4011C38.7254 20.4715 38.8392 20.5157 38.9586 20.5296C39.0779 20.5435 39.1989 20.5266 39.3098 20.4805L42.5457 19.1392L45.8479 20.4829C45.932 20.5173 46.0219 20.535 46.1127 20.535C46.2099 20.535 46.306 20.5149 46.395 20.476C46.484 20.437 46.564 20.3801 46.63 20.3088C46.696 20.2375 46.7465 20.1533 46.7784 20.0615C46.8103 19.9697 46.8229 19.8724 46.8154 19.7755L46.5403 16.2899L48.8324 13.563C48.9106 13.4711 48.9639 13.3605 48.987 13.242C49.0101 13.1235 49.0023 13.0011 48.9644 12.8865H48.9621ZM45.2725 15.5999C45.1534 15.7415 45.0946 15.9243 45.1089 16.1089L45.3168 18.7456L42.8034 17.7252C42.6325 17.6547 42.4407 17.6547 42.2698 17.7252L39.8252 18.7377L40.0196 16.033C40.033 15.8483 39.9731 15.6657 39.8528 15.5248L38.1345 13.514L40.7665 12.862C40.9465 12.8178 41.1017 12.7042 41.1981 12.5458L42.5797 10.29L44.0134 12.5932C44.1107 12.7514 44.2663 12.865 44.4466 12.9094L47.0193 13.5259L45.2725 15.5999ZM11.3775 16.2867L13.6736 13.5599C13.7509 13.4679 13.8034 13.3578 13.8261 13.2398C13.8489 13.1219 13.8411 13.0001 13.8036 12.886C13.766 12.772 13.7 12.6694 13.6117 12.588C13.5234 12.5066 13.4157 12.4491 13.299 12.4209L9.90031 11.606L8.01761 8.57965C7.95415 8.47817 7.86596 8.39448 7.76131 8.33641C7.65666 8.27835 7.53897 8.24782 7.41928 8.24768C7.29917 8.24794 7.18112 8.27894 7.07639 8.33774C6.97165 8.39654 6.88372 8.48118 6.82096 8.5836L4.99438 11.5657L1.53564 12.4225C1.41898 12.4513 1.31163 12.5094 1.22378 12.5914C1.13593 12.6734 1.07052 12.7764 1.03376 12.8908C0.997007 13.0052 0.990128 13.1271 1.01378 13.2449C1.03744 13.3627 1.09083 13.4725 1.1689 13.5638L3.44047 16.2219L3.18597 19.7786C3.17728 19.8986 3.19944 20.0187 3.25032 20.1276C3.30121 20.2365 3.37913 20.3306 3.47667 20.4009C3.57421 20.4712 3.68811 20.5153 3.80754 20.5291C3.92697 20.5429 4.04794 20.5259 4.15894 20.4797L7.38846 19.1408L10.6907 20.4845C10.7745 20.5189 10.8641 20.5366 10.9547 20.5366C11.052 20.5367 11.1482 20.5167 11.2373 20.4777C11.3264 20.4388 11.4065 20.3818 11.4726 20.3104C11.5386 20.2389 11.5891 20.1546 11.6209 20.0627C11.6527 19.9707 11.6651 19.8732 11.6573 19.7763L11.3775 16.2867ZM10.1129 15.5999C9.99332 15.7416 9.93452 15.9248 9.94932 16.1097L10.158 18.7448L7.64534 17.7252C7.5613 17.6908 7.47137 17.6731 7.38056 17.6731C7.28781 17.6732 7.19598 17.6914 7.11024 17.7268L4.66795 18.7393L4.8608 16.0346C4.86783 15.9431 4.85671 15.8511 4.8281 15.7638C4.79948 15.6766 4.75392 15.5959 4.69403 15.5264L2.97652 13.5156L5.60851 12.8635C5.78842 12.8192 5.94352 12.7056 6.04006 12.5474L7.42166 10.2916L8.85463 12.5948C8.95198 12.7532 9.10791 12.8669 9.28855 12.911L11.8605 13.5275L10.1129 15.5999Z" fill="black"/>
<path d="M24.9991 18.45C22.5371 18.4462 20.1216 19.1205 18.0176 20.3989C15.9135 21.6772 14.2021 23.5103 13.0711 25.6971C11.9401 27.8839 11.4331 30.3399 11.6057 32.7959C11.7784 35.2518 12.624 37.6127 14.0498 39.6197L14.0325 39.6419L14.3644 40.0718C14.4197 40.1438 14.4846 40.2054 14.5415 40.2766C14.6814 40.4504 14.8315 40.6164 14.9801 40.7832C15.154 40.9792 15.324 41.1784 15.5073 41.3633C15.5215 41.3768 15.5366 41.3886 15.5508 41.4029C16.1138 41.9606 16.7254 42.4671 17.3782 42.9165C17.4256 42.9497 17.4706 42.9868 17.5189 43.0192C17.8018 43.2097 18.0951 43.382 18.3883 43.5496C18.4966 43.6112 18.6025 43.6744 18.7131 43.7329C18.989 43.8799 19.2711 44.0135 19.5573 44.14C19.7059 44.2064 19.856 44.2696 20.0086 44.3312C20.2734 44.4372 20.5397 44.5367 20.8116 44.6253C21.0092 44.6909 21.2068 44.7454 21.4123 44.8015C21.6542 44.8679 21.8944 44.9367 22.1403 44.9896C22.4098 45.0481 22.6848 45.0884 22.9599 45.1311C23.1527 45.1604 23.3432 45.1983 23.5377 45.2196C24.5065 45.3292 25.4846 45.3292 26.4534 45.2196C26.6494 45.1983 26.8399 45.1596 27.0335 45.1303C27.3078 45.0884 27.5821 45.0513 27.8508 44.9896C28.0974 44.9367 28.3385 44.8679 28.5811 44.8015C28.7819 44.7454 28.9818 44.6909 29.1787 44.6261C29.4513 44.5367 29.7185 44.4364 29.9848 44.3305C30.1358 44.2696 30.2844 44.2072 30.433 44.1408C30.7199 44.0143 31.0021 43.8799 31.2795 43.7321C31.3886 43.6744 31.4937 43.612 31.6012 43.5503C31.8984 43.382 32.1924 43.2097 32.4762 43.0184C32.5228 42.9868 32.567 42.9504 32.6137 42.918C33.2628 42.4722 33.8712 41.9696 34.4316 41.4163C34.4505 41.3981 34.4719 41.3815 34.4901 41.3626C34.6718 41.1808 34.8402 40.9832 35.0117 40.7895C35.1627 40.6196 35.3152 40.452 35.4575 40.275C35.5136 40.2046 35.5776 40.1438 35.6322 40.0726L35.9641 39.6427L35.9467 39.6205C37.3727 37.6136 38.2185 35.2527 38.3914 32.7968C38.5642 30.3409 38.0574 27.8849 36.9265 25.698C35.7956 23.5111 34.0844 21.6779 31.9804 20.3994C29.8765 19.1209 27.4611 18.4464 24.9991 18.45ZM24.9991 19.8585C27.1704 19.8569 29.3014 20.4441 31.1654 21.5576C33.0294 22.6712 34.5566 24.2693 35.5844 26.1819C36.6121 28.0945 37.102 30.2501 37.0019 32.419C36.9017 34.588 36.2153 36.6892 35.0157 38.499C33.7616 37.0789 32.22 35.9418 30.493 35.1629C28.766 34.384 26.8932 33.9812 24.9987 33.9812C23.1042 33.9812 21.2313 34.384 19.5044 35.1629C17.7774 35.9418 16.2358 37.0789 14.9817 38.499C13.7818 36.6892 13.0951 34.5879 12.9949 32.4187C12.8946 30.2496 13.3845 28.0939 14.4124 26.1811C15.4403 24.2684 16.9678 22.6702 18.832 21.5568C20.6963 20.4434 22.8276 19.8565 24.9991 19.8585ZM33.7289 40.1082C33.6293 40.2141 33.5329 40.3232 33.4309 40.4244C33.2302 40.622 33.0199 40.8085 32.8065 40.9919C32.7212 41.0654 32.6366 41.1405 32.5489 41.2116C32.3191 41.3971 32.082 41.5741 31.8375 41.7427C31.7585 41.7988 31.6794 41.8542 31.5941 41.9087C31.3438 42.0736 31.0869 42.2299 30.8235 42.3774C30.7373 42.4256 30.6496 42.4707 30.5626 42.5165C30.301 42.654 30.0346 42.7845 29.762 42.9022C29.6553 42.9489 29.547 42.9892 29.4387 43.0318C29.1794 43.1354 28.9178 43.2358 28.6483 43.3211C28.5037 43.367 28.3543 43.4002 28.2073 43.4436C27.9702 43.5108 27.7283 43.5788 27.4833 43.6302C27.2683 43.6752 27.0486 43.7045 26.8296 43.7377C26.6415 43.7669 26.4558 43.8041 26.2653 43.8238C25.4221 43.9155 24.5714 43.9155 23.7281 43.8238C23.5377 43.8041 23.3535 43.7669 23.1654 43.7385C22.9464 43.7045 22.7251 43.676 22.5094 43.6302C22.2651 43.5788 22.0272 43.5108 21.7885 43.4444C21.6399 43.4041 21.4906 43.3654 21.3435 43.3211C21.0764 43.2358 20.8156 43.1354 20.5532 43.0318C20.4449 42.9892 20.335 42.9528 20.2283 42.9022C19.9556 42.7845 19.6901 42.654 19.4292 42.5165C19.3415 42.4707 19.253 42.4256 19.1668 42.3774C18.9034 42.2304 18.6465 42.0742 18.3962 41.9087C18.3172 41.855 18.2334 41.7988 18.1535 41.7435C17.9101 41.5736 17.6722 41.3973 17.4422 41.2108C17.3552 41.1405 17.2723 41.0669 17.1877 40.9942C16.9727 40.8093 16.7609 40.6212 16.5554 40.4228C16.4566 40.3248 16.3633 40.2189 16.2669 40.1169C16.1175 39.9588 15.9681 39.8007 15.8266 39.6324C16.9544 38.3027 18.3582 37.2344 19.9404 36.5017C21.5225 35.769 23.2452 35.3895 24.9888 35.3895C26.7324 35.3895 28.4551 35.769 30.0373 36.5017C31.6194 37.2344 33.0232 38.3027 34.151 39.6324C34.0221 39.7968 33.8759 39.9525 33.7289 40.1082ZM24.9991 31.6439C25.9917 31.6438 26.962 31.3493 27.7873 30.7977C28.6125 30.2461 29.2557 29.4622 29.6354 28.5451C30.0152 27.628 30.1145 26.6189 29.9207 25.6454C29.727 24.6718 29.2489 23.7776 28.547 23.0758C27.845 22.3739 26.9507 21.896 25.9772 21.7024C25.0036 21.5088 23.9945 21.6082 23.0774 21.9881C22.1604 22.368 21.3766 23.0113 20.8251 23.8367C20.2737 24.662 19.9793 25.6324 19.9793 26.625C19.981 27.9557 20.5104 29.2315 21.4515 30.1724C22.3925 31.1133 23.6684 31.6425 24.9991 31.6439ZM24.9991 23.0145C25.713 23.0143 26.411 23.2259 27.0048 23.6223C27.5985 24.0188 28.0614 24.5824 28.3349 25.2419C28.6084 25.9013 28.6803 26.6271 28.5414 27.3274C28.4025 28.0277 28.0591 28.6711 27.5546 29.1763C27.05 29.6815 26.4071 30.0257 25.707 30.1656C25.0068 30.3054 24.281 30.2345 23.6211 29.9619C22.9613 29.6892 22.3971 29.2271 21.9998 28.6338C21.6026 28.0406 21.3902 27.3429 21.3894 26.6289C21.3892 25.6711 21.7693 24.7523 22.4461 24.0746C23.123 23.3968 24.0412 23.0155 24.9991 23.0145ZM20.1074 10.9382L19.7754 15.5659C19.7667 15.6857 19.7888 15.8057 19.8395 15.9145C19.8903 16.0233 19.968 16.1174 20.0654 16.1877C20.1627 16.2581 20.2764 16.3023 20.3957 16.3163C20.5149 16.3303 20.6358 16.3136 20.7468 16.2677L24.9548 14.5242L29.2553 16.2693C29.3393 16.3038 29.4293 16.3215 29.5201 16.3215C29.6695 16.321 29.815 16.2734 29.9358 16.1855C30.0329 16.1146 30.1102 16.0199 30.1603 15.9106C30.2104 15.8013 30.2316 15.681 30.222 15.5611L29.8631 11.0212L32.8532 7.47231C32.9306 7.38044 32.9833 7.27027 33.0062 7.15228C33.029 7.0343 33.0213 6.91242 32.9838 6.79826C32.9462 6.68409 32.8801 6.58144 32.7916 6.50006C32.7032 6.41869 32.5954 6.3613 32.4785 6.33336L28.0524 5.27029L25.6022 1.33258C25.5422 1.22736 25.4545 1.14071 25.3485 1.08214C25.2425 1.02357 25.1224 0.995366 25.0015 1.00062C24.8814 1.00095 24.7633 1.03198 24.6586 1.09078C24.5539 1.14957 24.4659 1.23417 24.4031 1.33653L22.0241 5.21971L17.5189 6.33416C17.4022 6.36292 17.2948 6.42105 17.207 6.50302C17.1192 6.585 17.0537 6.68808 17.017 6.80247C16.9802 6.91686 16.9733 7.03875 16.997 7.15655C17.0207 7.27435 17.0741 7.38414 17.1521 7.47548L20.1074 10.9382ZM22.6366 6.51832C22.8163 6.47356 22.9713 6.36003 23.0682 6.20216L25.0015 3.04535L27.0035 6.26065C27.1009 6.41908 27.2568 6.53269 27.4374 6.57681L31.0384 7.4407L28.5977 10.3383C28.5383 10.4082 28.4933 10.4891 28.4652 10.5765C28.4372 10.6638 28.4266 10.7558 28.4341 10.8473L28.7258 14.5384L25.2141 13.1157C25.0432 13.0451 24.8514 13.0451 24.6806 13.1157L21.259 14.5328L21.5301 10.7556C21.5441 10.5705 21.4841 10.3874 21.3633 10.2466L18.9589 7.432L22.6366 6.51832ZM48.9621 12.8865C48.9248 12.7723 48.8588 12.6695 48.7705 12.588C48.6823 12.5065 48.5746 12.449 48.4578 12.4209L45.0591 11.606L43.178 8.57965C43.1146 8.47812 43.0264 8.39438 42.9218 8.33631C42.8171 8.27824 42.6994 8.24774 42.5797 8.24768C42.4596 8.24816 42.3416 8.27926 42.2369 8.33804C42.1323 8.39682 42.0443 8.48134 41.9814 8.5836L40.1548 11.5657L36.696 12.4225C36.5794 12.4513 36.472 12.5094 36.3842 12.5914C36.2963 12.6734 36.2309 12.7764 36.1942 12.8908C36.1574 13.0052 36.1505 13.1271 36.1742 13.2449C36.1978 13.3627 36.2512 13.4725 36.3293 13.5638L38.5938 16.2219L38.3385 19.7786C38.3295 19.8985 38.3515 20.0186 38.4021 20.1276C38.4528 20.2365 38.5306 20.3307 38.628 20.4011C38.7254 20.4715 38.8392 20.5157 38.9586 20.5296C39.0779 20.5435 39.1989 20.5266 39.3098 20.4805L42.5457 19.1392L45.8479 20.4829C45.932 20.5173 46.0219 20.535 46.1127 20.535C46.2099 20.535 46.306 20.5149 46.395 20.476C46.484 20.437 46.564 20.3801 46.63 20.3088C46.696 20.2375 46.7465 20.1533 46.7784 20.0615C46.8103 19.9697 46.8229 19.8724 46.8154 19.7755L46.5403 16.2899L48.8324 13.563C48.9106 13.4711 48.9639 13.3605 48.987 13.242C49.0101 13.1235 49.0023 13.0011 48.9644 12.8865H48.9621ZM45.2725 15.5999C45.1534 15.7415 45.0946 15.9243 45.1089 16.1089L45.3168 18.7456L42.8034 17.7252C42.6325 17.6547 42.4407 17.6547 42.2698 17.7252L39.8252 18.7377L40.0196 16.033C40.033 15.8483 39.9731 15.6657 39.8528 15.5248L38.1345 13.514L40.7665 12.862C40.9465 12.8178 41.1017 12.7042 41.1981 12.5458L42.5797 10.29L44.0134 12.5932C44.1107 12.7514 44.2663 12.865 44.4466 12.9094L47.0193 13.5259L45.2725 15.5999ZM11.3775 16.2867L13.6736 13.5599C13.7509 13.4679 13.8034 13.3578 13.8261 13.2398C13.8489 13.1219 13.8411 13.0001 13.8036 12.886C13.766 12.772 13.7 12.6694 13.6117 12.588C13.5234 12.5066 13.4157 12.4491 13.299 12.4209L9.90031 11.606L8.01761 8.57965C7.95415 8.47817 7.86596 8.39448 7.76131 8.33641C7.65666 8.27835 7.53897 8.24782 7.41928 8.24768C7.29917 8.24794 7.18112 8.27894 7.07639 8.33774C6.97165 8.39654 6.88372 8.48118 6.82096 8.5836L4.99438 11.5657L1.53564 12.4225C1.41898 12.4513 1.31163 12.5094 1.22378 12.5914C1.13593 12.6734 1.07052 12.7764 1.03376 12.8908C0.997007 13.0052 0.990128 13.1271 1.01378 13.2449C1.03744 13.3627 1.09083 13.4725 1.1689 13.5638L3.44047 16.2219L3.18597 19.7786C3.17728 19.8986 3.19944 20.0187 3.25032 20.1276C3.30121 20.2365 3.37913 20.3306 3.47667 20.4009C3.57421 20.4712 3.68811 20.5153 3.80754 20.5291C3.92697 20.5429 4.04794 20.5259 4.15894 20.4797L7.38846 19.1408L10.6907 20.4845C10.7745 20.5189 10.8641 20.5366 10.9547 20.5366C11.052 20.5367 11.1482 20.5167 11.2373 20.4777C11.3264 20.4388 11.4065 20.3818 11.4726 20.3104C11.5386 20.2389 11.5891 20.1546 11.6209 20.0627C11.6527 19.9707 11.6651 19.8732 11.6573 19.7763L11.3775 16.2867ZM10.1129 15.5999C9.99332 15.7416 9.93452 15.9248 9.94932 16.1097L10.158 18.7448L7.64534 17.7252C7.5613 17.6908 7.47137 17.6731 7.38056 17.6731C7.28781 17.6732 7.19598 17.6914 7.11024 17.7268L4.66795 18.7393L4.8608 16.0346C4.86783 15.9431 4.85671 15.8511 4.8281 15.7638C4.79948 15.6766 4.75392 15.5959 4.69403 15.5264L2.97652 13.5156L5.60851 12.8635C5.78842 12.8192 5.94352 12.7056 6.04006 12.5474L7.42166 10.2916L8.85463 12.5948C8.95198 12.7532 9.10791 12.8669 9.28855 12.911L11.8605 13.5275L10.1129 15.5999Z" stroke="black" stroke-width="0.74" mask="url(#path-1-outside-1_296_360)"/>
</g>
</g>
</svg>
